<?xml version="1.0" encoding="utf-8"?>
<!-- Generator: Adobe Illustrator 27.9.2, SVG Export Plug-In . SVG Version: 6.00 Build 0)  -->
<svg version="1.1" id="Layer_1" xmlns="http://www.w3.org/2000/svg" xmlns:xlink="http://www.w3.org/1999/xlink" x="0px" y="0px"
	 viewBox="0 0 57 47.4" style="enable-background:new 0 0 57 47.4;" xml:space="preserve">
<style type="text/css">
	.st0{fill:#34A853;}
	.st1{fill:#FBBC05;}
	.st2{fill:#EA4335;}
	.st3{fill:#4285F4;}
</style>
<g id="ICON">
	<g>
		<path class="st0" d="M48.4,40.3c-3.4,3.2-8.3,5.2-14.7,5.2c-8.2,0-15.6-4.9-19.2-12l7.2-5.7c1.7,5.2,6.4,9,12,9
			c3.1,0,5.7-0.8,7.6-2.1L48.4,40.3z"/>
	</g>
	<g>
		<path class="st1" d="M21,23.7c0,1.4,0.2,2.8,0.6,4.1l-7.2,5.7c-1.5-2.9-2.4-6.3-2.4-9.8c0-3.5,0.9-6.8,2.4-9.8l7.2,5.7
			C21.2,20.9,21,22.3,21,23.7z"/>
	</g>
	<g>
		<path class="st2" d="M48.3,7.8l-6.1,6c-2.2-2-5.1-3.2-8.5-3.2c-5.6,0-10.4,3.8-12,9l-7.2-5.7c3.6-7.1,11-12,19.2-12
			C39.6,1.9,44.7,4.1,48.3,7.8z"/>
	</g>
	<g>
		<path class="st3" d="M54.7,23.7c0,1.5-0.1,3-0.3,4.5c-0.7,4.8-2.7,9-6,12.1l-7.1-5.6c2.2-1.5,3.7-3.8,4.5-6.5H34v-8.1h20.4
			C54.6,21.3,54.7,22.5,54.7,23.7z"/>
	</g>
</g>
</svg>
